<mxfile host="app.diagrams.net" modified="2023-03-29T14:28:58.472Z" agent="5.0 (Windows NT 10.0; Win64; x64) AppleWebKit/537.36 (KHTML, like Gecko) Chrome/111.0.0.0 Safari/537.36" etag="gKp-xxwsDpP5hK8Kg-lZ" version="21.0.2" type="github">
  <diagram name="Pagina-1" id="5jNiZCJIE1jtBNe7we9j">
    <mxGraphModel dx="1050" dy="491" grid="1" gridSize="10" guides="1" tooltips="1" connect="1" arrows="1" fold="1" page="1" pageScale="1" pageWidth="827" pageHeight="1169" math="0" shadow="0">
      <root>
        <mxCell id="0" />
        <mxCell id="1" parent="0" />
        <mxCell id="6U0W1QX95RymhfJDvBkZ-2" value="&lt;font style=&quot;font-size: 18px;&quot;&gt;People Power&lt;/font&gt;" style="rounded=1;whiteSpace=wrap;html=1;" vertex="1" parent="1">
          <mxGeometry x="324" y="30" width="180" height="90" as="geometry" />
        </mxCell>
        <mxCell id="6U0W1QX95RymhfJDvBkZ-6" value="" style="rhombus;whiteSpace=wrap;html=1;" vertex="1" parent="1">
          <mxGeometry x="140" y="40" width="80" height="80" as="geometry" />
        </mxCell>
        <mxCell id="6U0W1QX95RymhfJDvBkZ-8" value="&lt;font style=&quot;font-size: 14px;&quot;&gt;Employee&lt;/font&gt;" style="rounded=1;whiteSpace=wrap;html=1;" vertex="1" parent="1">
          <mxGeometry x="600" y="250" width="120" height="60" as="geometry" />
        </mxCell>
        <mxCell id="6U0W1QX95RymhfJDvBkZ-9" value="&lt;font style=&quot;font-size: 14px;&quot;&gt;Admin&lt;/font&gt;" style="rounded=1;whiteSpace=wrap;html=1;" vertex="1" parent="1">
          <mxGeometry x="50" y="190" width="120" height="60" as="geometry" />
        </mxCell>
        <mxCell id="6U0W1QX95RymhfJDvBkZ-10" value="&lt;font style=&quot;font-size: 14px;&quot;&gt;Contract&lt;/font&gt;" style="rounded=1;whiteSpace=wrap;html=1;" vertex="1" parent="1">
          <mxGeometry x="410" y="400" width="120" height="60" as="geometry" />
        </mxCell>
        <mxCell id="6U0W1QX95RymhfJDvBkZ-11" value="&lt;font style=&quot;font-size: 14px;&quot;&gt;Dismissal&lt;/font&gt;" style="rounded=1;whiteSpace=wrap;html=1;" vertex="1" parent="1">
          <mxGeometry x="300" y="330" width="120" height="60" as="geometry" />
        </mxCell>
        <mxCell id="6U0W1QX95RymhfJDvBkZ-12" value="&lt;font style=&quot;font-size: 14px;&quot;&gt;Payroll&lt;/font&gt;" style="rounded=1;whiteSpace=wrap;html=1;" vertex="1" parent="1">
          <mxGeometry x="150" y="400" width="120" height="60" as="geometry" />
        </mxCell>
        <mxCell id="6U0W1QX95RymhfJDvBkZ-13" value="&lt;font style=&quot;font-size: 14px;&quot;&gt;Benefits&lt;/font&gt;" style="rounded=1;whiteSpace=wrap;html=1;" vertex="1" parent="1">
          <mxGeometry y="330" width="120" height="60" as="geometry" />
        </mxCell>
        <mxCell id="6U0W1QX95RymhfJDvBkZ-14" value="TypeOfWork" style="rounded=1;whiteSpace=wrap;html=1;" vertex="1" parent="1">
          <mxGeometry x="324" y="230" width="120" height="60" as="geometry" />
        </mxCell>
        <mxCell id="6U0W1QX95RymhfJDvBkZ-15" value="&lt;font style=&quot;font-size: 14px;&quot;&gt;Performance&lt;/font&gt;" style="rounded=1;whiteSpace=wrap;html=1;" vertex="1" parent="1">
          <mxGeometry x="540" y="400" width="120" height="60" as="geometry" />
        </mxCell>
        <mxCell id="6U0W1QX95RymhfJDvBkZ-17" value="&lt;font style=&quot;font-size: 10px;&quot;&gt;registra&lt;/font&gt;" style="rhombus;whiteSpace=wrap;html=1;" vertex="1" parent="1">
          <mxGeometry x="630" y="140" width="60" height="60" as="geometry" />
        </mxCell>
        <mxCell id="6U0W1QX95RymhfJDvBkZ-20" value="" style="rounded=1;whiteSpace=wrap;html=1;" vertex="1" parent="1">
          <mxGeometry x="607" y="330" width="120" height="60" as="geometry" />
        </mxCell>
        <mxCell id="6U0W1QX95RymhfJDvBkZ-22" value="&lt;font style=&quot;font-size: 12px;&quot;&gt;Registrazione&lt;/font&gt;" style="shape=process;whiteSpace=wrap;html=1;backgroundOutline=1;" vertex="1" parent="1">
          <mxGeometry x="607" y="55" width="106" height="40" as="geometry" />
        </mxCell>
        <mxCell id="6U0W1QX95RymhfJDvBkZ-23" value="" style="endArrow=classic;html=1;rounded=0;exitX=0.5;exitY=0;exitDx=0;exitDy=0;" edge="1" parent="1" source="6U0W1QX95RymhfJDvBkZ-8">
          <mxGeometry width="50" height="50" relative="1" as="geometry">
            <mxPoint x="659" y="170" as="sourcePoint" />
            <mxPoint x="660" y="200" as="targetPoint" />
          </mxGeometry>
        </mxCell>
        <mxCell id="6U0W1QX95RymhfJDvBkZ-25" value="" style="endArrow=classic;html=1;rounded=0;entryX=1;entryY=0.5;entryDx=0;entryDy=0;exitX=0;exitY=0.5;exitDx=0;exitDy=0;" edge="1" parent="1" source="6U0W1QX95RymhfJDvBkZ-22" target="6U0W1QX95RymhfJDvBkZ-2">
          <mxGeometry width="50" height="50" relative="1" as="geometry">
            <mxPoint x="607" y="80" as="sourcePoint" />
            <mxPoint x="507" y="110" as="targetPoint" />
            <Array as="points" />
          </mxGeometry>
        </mxCell>
        <mxCell id="6U0W1QX95RymhfJDvBkZ-26" value="" style="endArrow=classic;html=1;rounded=0;entryX=0.5;entryY=1;entryDx=0;entryDy=0;" edge="1" parent="1" target="6U0W1QX95RymhfJDvBkZ-22">
          <mxGeometry width="50" height="50" relative="1" as="geometry">
            <mxPoint x="660" y="140" as="sourcePoint" />
            <mxPoint x="660" y="110" as="targetPoint" />
          </mxGeometry>
        </mxCell>
        <mxCell id="6U0W1QX95RymhfJDvBkZ-28" value="(1,1)" style="text;html=1;strokeColor=none;fillColor=none;align=center;verticalAlign=middle;whiteSpace=wrap;rounded=0;" vertex="1" parent="1">
          <mxGeometry x="650" y="205" width="60" height="30" as="geometry" />
        </mxCell>
      </root>
    </mxGraphModel>
  </diagram>
</mxfile>
